<svg width="178" height="41" viewBox="0 0 178 41" fill="none" xmlns="http://www.w3.org/2000/svg">
<path d="M46.6362 27.5752C46.3485 27.9137 46.0438 28.2227 45.7222 28.502C45.4006 28.7728 45.0662 29.0098 44.7192 29.2129C44.1268 29.5684 43.4878 29.8307 42.8022 30C42.1167 30.1777 41.3973 30.2624 40.644 30.2539C39.8823 30.2454 39.1799 30.1312 38.5366 29.9111C37.9019 29.6826 37.3306 29.3695 36.8228 28.9717C36.3149 28.5824 35.8706 28.1211 35.4897 27.5879C35.1089 27.0547 34.7915 26.4749 34.5376 25.8486C34.2752 25.2308 34.0763 24.5833 33.9409 23.9062C33.814 23.2207 33.7463 22.5309 33.7378 21.8369V19.6914C33.7463 19.0059 33.8055 18.3245 33.9155 17.6475C34.034 16.9619 34.2118 16.306 34.4487 15.6797C34.6857 15.0534 34.9819 14.4736 35.3374 13.9404C35.6929 13.3988 36.1203 12.929 36.6196 12.5312C37.1105 12.1419 37.6691 11.833 38.2954 11.6045C38.9217 11.376 39.6242 11.2617 40.4028 11.2617C41.2661 11.2617 42.0617 11.3971 42.7896 11.668C43.5174 11.9303 44.1522 12.307 44.6938 12.7979C45.2355 13.2972 45.6714 13.8981 46.0015 14.6006C46.3315 15.2946 46.5347 16.0732 46.6108 16.9365H44.2876C44.1945 16.4033 44.0506 15.9124 43.856 15.4639C43.6613 15.0068 43.4074 14.6175 43.0942 14.2959C42.7726 13.9743 42.3918 13.7246 41.9517 13.5469C41.5116 13.3607 40.9995 13.2676 40.4155 13.2676C39.8569 13.2676 39.3618 13.3649 38.9302 13.5596C38.4985 13.7458 38.1219 13.9997 37.8003 14.3213C37.4787 14.6429 37.2121 15.0195 37.0005 15.4512C36.7889 15.8743 36.6154 16.3229 36.48 16.7969C36.3446 17.2708 36.2472 17.7533 36.188 18.2441C36.1287 18.735 36.0991 19.209 36.0991 19.666V21.8369C36.1076 22.3024 36.1457 22.7848 36.2134 23.2842C36.2896 23.7751 36.4038 24.2575 36.5562 24.7314C36.7085 25.2054 36.9032 25.654 37.1401 26.0771C37.3771 26.5003 37.6649 26.8727 38.0034 27.1943C38.3335 27.516 38.7186 27.7741 39.1587 27.9688C39.5988 28.1549 40.0981 28.2523 40.6567 28.2607C40.9784 28.2692 41.3127 28.2565 41.6597 28.2227C42.0151 28.1888 42.3579 28.1211 42.688 28.0195C43.0181 27.918 43.327 27.7826 43.6147 27.6133C43.9025 27.4355 44.1437 27.207 44.3384 26.9277L44.3638 22.7764H40.606V20.7959H46.5981L46.6362 27.5752ZM50.097 35.5479C49.8769 35.5479 49.6188 35.5225 49.3226 35.4717C49.0263 35.4209 48.8021 35.3786 48.6497 35.3447L49.0306 33.4277C49.2422 33.4447 49.4495 33.4574 49.6526 33.4658C49.8642 33.4827 50.0293 33.4912 50.1478 33.4912C50.4694 33.4912 50.7614 33.4023 51.0237 33.2246C51.2946 33.0469 51.5358 32.8353 51.7474 32.5898C51.9505 32.3444 52.124 32.0905 52.2679 31.8281C52.4202 31.5658 52.5387 31.3499 52.6233 31.1807L53.5628 29.3525L47.6468 16.2637H50.2747L54.0452 25.125L54.6546 26.7881L55.3021 25.1758L58.844 16.2637H61.472L54.5022 32.1201C54.3414 32.4756 54.1341 32.8522 53.8802 33.25C53.6347 33.6478 53.3343 34.016 52.9788 34.3545C52.6233 34.693 52.2086 34.9766 51.7347 35.2051C51.2607 35.4336 50.7148 35.5479 50.097 35.5479ZM64.3868 16.2637L64.4503 17.5586C64.7296 17.0762 65.0935 16.6995 65.5421 16.4287C65.9991 16.1579 66.5493 16.0182 67.1925 16.0098C67.5564 16.0098 67.8823 16.0521 68.17 16.1367C68.4662 16.2129 68.7244 16.3271 68.9444 16.4795C69.1052 16.598 69.2491 16.7419 69.3761 16.9111C69.5115 17.0804 69.6257 17.2708 69.7188 17.4824C69.8373 17.2878 69.977 17.1058 70.1378 16.9365C70.2986 16.7673 70.4721 16.6191 70.6583 16.4922C70.8953 16.3483 71.1576 16.234 71.4454 16.1494C71.7416 16.0648 72.0632 16.0182 72.4103 16.0098C72.8842 16.0098 73.3116 16.0817 73.6925 16.2256C74.0733 16.361 74.395 16.5641 74.6573 16.835C74.9451 17.1396 75.1651 17.5374 75.3175 18.0283C75.4698 18.5107 75.546 19.082 75.546 19.7422V30H73.3116V19.7168C73.3116 19.429 73.2778 19.1751 73.2101 18.9551C73.1423 18.735 73.045 18.5531 72.9181 18.4092C72.7826 18.2738 72.6134 18.1722 72.4103 18.1045C72.2156 18.0368 71.9871 18.0029 71.7247 18.0029C71.4454 18.0029 71.2042 18.041 71.0011 18.1172C70.7979 18.1934 70.6287 18.2949 70.4933 18.4219C70.3578 18.5573 70.2521 18.7139 70.1759 18.8916C70.0997 19.0609 70.0489 19.2513 70.0235 19.4629C70.0235 19.5052 70.0235 19.5475 70.0235 19.5898C70.0235 19.6237 70.0235 19.666 70.0235 19.7168V30H67.7892V19.7041C67.7892 19.4163 67.7553 19.1624 67.6876 18.9424C67.6284 18.7223 67.531 18.5404 67.3956 18.3965C67.2687 18.2611 67.1078 18.1637 66.9132 18.1045C66.727 18.0368 66.5069 18.0029 66.253 18.0029C65.9737 18.0029 65.7283 18.0368 65.5167 18.1045C65.3136 18.1637 65.1401 18.2526 64.9962 18.3711C64.8862 18.4642 64.7888 18.57 64.7042 18.6885C64.628 18.807 64.5646 18.9339 64.5138 19.0693V30H62.2794V16.2637H64.3868ZM81.1269 30V18.0791H77.3437V16.2637H81.1269V15.2988C81.1269 14.4186 81.2538 13.6484 81.5077 12.9883C81.7701 12.3197 82.1382 11.7611 82.6122 11.3125C83.0777 10.8639 83.6405 10.5254 84.3007 10.2969C84.9608 10.0684 85.6972 9.9541 86.5097 9.9541C86.8482 9.9541 87.1825 9.97526 87.5126 10.0176C87.8427 10.0514 88.1685 10.098 88.4901 10.1572C88.7017 10.1995 88.9133 10.2461 89.1249 10.2969C89.3365 10.3392 89.5523 10.39 89.7724 10.4492L89.4931 12.3916C89.1461 12.2731 88.7398 12.1715 88.2743 12.0869C87.8173 11.9938 87.3264 11.9473 86.8017 11.9473C86.2685 11.9473 85.7945 12.015 85.3798 12.1504C84.9735 12.2773 84.635 12.472 84.3642 12.7344C84.0764 13.0052 83.8563 13.3564 83.704 13.7881C83.5601 14.2197 83.4882 14.7233 83.4882 15.2988V16.2637H88.7821V18.0791H83.4882V30H81.1269ZM92.3063 10.5H99.3269V27.9688H103.808V30H92.3063V27.9688H96.9782V12.5439H92.3063V10.5ZM115.305 30L115.166 28.1084C114.708 28.7855 114.137 29.3145 113.452 29.6953C112.766 30.0677 111.975 30.2539 111.078 30.2539C110.358 30.2539 109.707 30.1439 109.123 29.9238C108.539 29.6953 108.039 29.3441 107.625 28.8701C107.21 28.3962 106.888 27.7952 106.66 27.0674C106.44 26.3311 106.33 25.4508 106.33 24.4268V16.2637H108.678V24.4521C108.678 25.1969 108.737 25.8148 108.856 26.3057C108.974 26.7965 109.152 27.1859 109.389 27.4736C109.626 27.7699 109.914 27.9772 110.252 28.0957C110.599 28.2142 110.997 28.2734 111.446 28.2734C111.971 28.2734 112.44 28.2142 112.855 28.0957C113.27 27.9688 113.629 27.7952 113.934 27.5752C114.188 27.3975 114.408 27.1859 114.594 26.9404C114.789 26.6865 114.95 26.4115 115.077 26.1152V16.2637H117.438V30H115.305ZM126.637 30.2539C125.672 30.2539 124.783 30.0889 123.971 29.7588C123.167 29.4287 122.477 28.9674 121.902 28.375C121.326 27.7826 120.878 27.0801 120.556 26.2676C120.234 25.4551 120.074 24.5706 120.074 23.6143V23.0811C120.074 21.9723 120.251 20.9821 120.607 20.1104C120.962 19.2301 121.436 18.4854 122.029 17.876C122.613 17.2751 123.277 16.8138 124.022 16.4922C124.775 16.1706 125.545 16.0098 126.332 16.0098C127.323 16.0098 128.186 16.1833 128.922 16.5303C129.667 16.8688 130.285 17.3385 130.776 17.9395C131.267 18.5488 131.63 19.264 131.867 20.085C132.113 20.9059 132.236 21.7946 132.236 22.751V23.8047H122.422V23.8936C122.481 24.5622 122.613 25.1504 122.816 25.6582C123.027 26.166 123.315 26.6146 123.679 27.0039C124.051 27.4186 124.5 27.7445 125.025 27.9814C125.549 28.2184 126.129 28.3369 126.764 28.3369C127.602 28.3369 128.347 28.1676 128.998 27.8291C129.65 27.4906 130.192 27.042 130.623 26.4834L132.058 27.6006C131.601 28.2946 130.915 28.9124 130.001 29.4541C129.096 29.9873 127.974 30.2539 126.637 30.2539ZM126.332 17.9395C125.858 17.9395 125.41 18.0283 124.987 18.2061C124.563 18.3753 124.183 18.625 123.844 18.9551C123.505 19.2936 123.218 19.7083 122.981 20.1992C122.752 20.6816 122.591 21.2402 122.498 21.875H129.887V21.7607C129.887 21.3376 129.807 20.8848 129.646 20.4023C129.485 19.9115 129.261 19.4883 128.973 19.1328C128.685 18.7773 128.321 18.4896 127.881 18.2695C127.45 18.0495 126.933 17.9395 126.332 17.9395ZM134.884 30V16.2637H136.991L137.156 18.2949C137.359 18.0072 137.58 17.7448 137.817 17.5078C138.062 17.2624 138.32 17.0508 138.591 16.873C138.997 16.6022 139.437 16.3949 139.911 16.251C140.394 16.0986 140.901 16.0182 141.435 16.0098C142.154 16.0098 142.806 16.1113 143.39 16.3145C143.982 16.5176 144.486 16.835 144.9 17.2666C145.315 17.6982 145.633 18.2484 145.853 18.917C146.081 19.5771 146.195 20.3643 146.195 21.2783V30H143.847V21.3291C143.847 20.7197 143.779 20.2035 143.644 19.7803C143.508 19.3571 143.309 19.0143 143.047 18.752C142.776 18.4896 142.446 18.2992 142.057 18.1807C141.676 18.0622 141.236 18.0029 140.736 18.0029C140.305 18.0029 139.903 18.0664 139.53 18.1934C139.158 18.3118 138.815 18.4769 138.502 18.6885C138.248 18.8747 138.011 19.0905 137.791 19.3359C137.58 19.5814 137.393 19.8522 137.233 20.1484V30H134.884ZM155.052 28.3496C155.475 28.3496 155.885 28.2819 156.283 28.1465C156.689 28.0111 157.049 27.8206 157.362 27.5752C157.675 27.3382 157.925 27.0589 158.111 26.7373C158.306 26.4072 158.407 26.0518 158.416 25.6709H160.638C160.629 26.2803 160.468 26.8643 160.155 27.4229C159.85 27.973 159.44 28.4554 158.924 28.8701C158.407 29.2933 157.815 29.6318 157.146 29.8857C156.478 30.1312 155.78 30.2539 155.052 30.2539C154.011 30.2539 153.101 30.0677 152.322 29.6953C151.544 29.3229 150.896 28.8193 150.38 28.1846C149.855 27.5583 149.461 26.8346 149.199 26.0137C148.937 25.1842 148.806 24.3125 148.806 23.3984V22.8652C148.806 21.9596 148.937 21.0921 149.199 20.2627C149.461 19.4333 149.855 18.7012 150.38 18.0664C150.896 17.4401 151.544 16.9408 152.322 16.5684C153.101 16.196 154.011 16.0098 155.052 16.0098C155.864 16.0098 156.609 16.141 157.286 16.4033C157.972 16.6572 158.564 17.0042 159.063 17.4443C159.554 17.8929 159.939 18.4219 160.219 19.0312C160.498 19.6406 160.638 20.2923 160.638 20.9863H158.416C158.407 20.5716 158.314 20.1823 158.137 19.8184C157.967 19.446 157.735 19.1201 157.438 18.8408C157.142 18.5615 156.787 18.3415 156.372 18.1807C155.966 18.0199 155.526 17.9395 155.052 17.9395C154.324 17.9395 153.71 18.0876 153.211 18.3838C152.72 18.6715 152.322 19.0482 152.017 19.5137C151.713 19.9876 151.493 20.5166 151.357 21.1006C151.23 21.6846 151.167 22.2728 151.167 22.8652V23.3984C151.167 23.9993 151.23 24.596 151.357 25.1885C151.493 25.7725 151.713 26.2972 152.017 26.7627C152.314 27.2367 152.707 27.6217 153.198 27.918C153.697 28.2057 154.315 28.3496 155.052 28.3496ZM169.583 30.2539C168.618 30.2539 167.729 30.0889 166.917 29.7588C166.113 29.4287 165.423 28.9674 164.847 28.375C164.272 27.7826 163.823 27.0801 163.502 26.2676C163.18 25.4551 163.019 24.5706 163.019 23.6143V23.0811C163.019 21.9723 163.197 20.9821 163.552 20.1104C163.908 19.2301 164.382 18.4854 164.974 17.876C165.558 17.2751 166.223 16.8138 166.967 16.4922C167.721 16.1706 168.491 16.0098 169.278 16.0098C170.268 16.0098 171.132 16.1833 171.868 16.5303C172.613 16.8688 173.231 17.3385 173.721 17.9395C174.212 18.5488 174.576 19.264 174.813 20.085C175.059 20.9059 175.181 21.7946 175.181 22.751V23.8047H165.368V23.8936C165.427 24.5622 165.558 25.1504 165.761 25.6582C165.973 26.166 166.261 26.6146 166.625 27.0039C166.997 27.4186 167.446 27.7445 167.97 27.9814C168.495 28.2184 169.075 28.3369 169.71 28.3369C170.548 28.3369 171.292 28.1676 171.944 27.8291C172.596 27.4906 173.137 27.042 173.569 26.4834L175.004 27.6006C174.547 28.2946 173.861 28.9124 172.947 29.4541C172.041 29.9873 170.92 30.2539 169.583 30.2539ZM169.278 17.9395C168.804 17.9395 168.356 18.0283 167.932 18.2061C167.509 18.3753 167.128 18.625 166.79 18.9551C166.451 19.2936 166.163 19.7083 165.926 20.1992C165.698 20.6816 165.537 21.2402 165.444 21.875H172.833V21.7607C172.833 21.3376 172.752 20.8848 172.592 20.4023C172.431 19.9115 172.206 19.4883 171.919 19.1328C171.631 18.7773 171.267 18.4896 170.827 18.2695C170.395 18.0495 169.879 17.9395 169.278 17.9395Z" fill="#17071E"/>
<path d="M2.84654 36.0484C2.84654 36.0484 8.13975 26.1222 12.3007 20.5913C16.5045 15.0022 22.3178 9.78006 22.3178 9.78006C22.3178 9.78006 17.2832 12.6525 11.5865 20.2213C6.9006 26.447 5.94257 28.7322 5.95414 28.7536C5.8893 28.8467 4.46981 25.0576 6.18392 21.438C7.83137 17.9573 8.6374 17.0411 8.6374 17.0411C8.61291 18.3757 8.52156 19.7321 9.28271 20.8122C9.18042 20.6452 9.68343 16.0841 9.94479 15.5815C10.2994 14.8994 13.2944 11.5921 13.3254 11.6516C12.8968 13.884 13.0813 14.7485 13.3981 15.8585C13.3218 15.8837 14.1315 11.0798 14.9908 10.2847C16.5363 8.8598 22.925 4.66691 26.5111 6.56292C28.106 7.407 25.5868 12.5461 24.7905 13.0379C24.2304 13.3837 19.599 14.6459 19.517 14.6077C20.8894 14.9629 22.5539 14.6948 24.1584 14.5514C24.188 14.5593 21.2708 18.9436 20.6937 19.2169C20.3319 19.3889 15.1268 20.3919 15.0029 20.3342C16.5248 20.755 18.2544 20.6327 19.9953 20.4785C19.9953 20.4785 17.5543 23.9575 16.276 24.5812C15.1918 25.1115 11.7051 25.852 11.697 25.8483C12.9231 26.1313 14.2362 26.0128 15.5481 25.9054C13.6348 27.9691 11.2241 29.357 7.98374 29.6233L4.62035 35.1849L2.84654 36.0484Z" fill="black"/>
</svg>
